<?xml version="1.0" encoding="UTF-8"?>
<svg id="Layer_1" data-name="Layer 1" xmlns="http://www.w3.org/2000/svg" viewBox="0 0 222 40">
  <defs>
    <style>
      .cls-1 {
        fill: #fff;
      }

      .cls-1, .cls-2 {
        fill-rule: evenodd;
      }

      .cls-3 {
        fill: #45bfdb;
      }

      .cls-4 {
        fill: #e6e5e4;
      }

      .cls-2, .cls-5 {
        fill: #130d0c;
      }
    </style>
  </defs>
  <g>
    <path class="cls-1" d="m11.82,1.07h16.35c3.74,0,5.09.39,6.46,1.12,1.37.73,2.44,1.8,3.17,3.17.73,1.37,1.12,2.72,1.12,6.46v16.35c0,3.74-.39,5.09-1.12,6.46-.73,1.37-1.8,2.44-3.17,3.17-1.37.73-2.72,1.12-6.46,1.12H11.82c-3.74,0-5.09-.39-6.46-1.12-1.37-.73-2.44-1.8-3.17-3.17-.73-1.37-1.12-2.72-1.12-6.46V11.82c0-3.74.39-5.09,1.12-6.46.73-1.37,1.8-2.44,3.17-3.17,1.37-.73,2.72-1.12,6.46-1.12Z"/>
    <path class="cls-4" d="m28.18,40H11.82c-3.92,0-5.42-.42-6.97-1.25-1.56-.83-2.78-2.05-3.61-3.61-.83-1.55-1.25-3.05-1.25-6.97V11.82c0-3.92.42-5.42,1.25-6.97.83-1.56,2.05-2.78,3.61-3.61,1.55-.83,3.05-1.25,6.97-1.25h16.35c3.92,0,5.42.42,6.97,1.25,1.56.83,2.78,2.05,3.61,3.61.83,1.55,1.25,3.05,1.25,6.97v16.35c0,3.92-.42,5.42-1.25,6.97-.83,1.56-2.05,2.78-3.61,3.61-1.55.83-3.05,1.25-6.97,1.25ZM11.82,2.14c-3.8,0-4.9.43-5.96.99-1.18.63-2.1,1.55-2.73,2.73-.56,1.05-.99,2.16-.99,5.96v16.35c0,3.8.43,4.9.99,5.96.63,1.18,1.55,2.1,2.73,2.73,1.05.56,2.16.99,5.96.99h16.35c3.8,0,4.9-.43,5.96-.99,1.18-.63,2.1-1.55,2.73-2.73.56-1.05.99-2.16.99-5.96V11.82c0-3.8-.43-4.9-.99-5.96-.63-1.18-1.55-2.1-2.73-2.73-1.05-.56-2.16-.99-5.96-.99H11.82Z"/>
  </g>
  <g id="Layer_2-2" data-name="Layer 2-2">
    <g id="Layer_2-3" data-name="Layer 2-3">
      <g id="Layer_2-4" data-name="Layer 2-4">
        <g>
          <g>
            <path class="cls-5" d="m163.99,31.79c-5.42,0-9.36-3.95-9.36-9.4s3.94-9.4,9.36-9.4,9.32,3.95,9.32,9.4-3.92,9.4-9.32,9.4m0-15.87c-3.5,0-5.94,2.66-5.94,6.47s2.44,6.47,5.94,6.47,5.9-2.66,5.9-6.47-2.43-6.47-5.9-6.47"/>
            <path class="cls-5" d="m211.28,31.79c-4.07,0-6.83-2.19-7.29-5.71,0-.03,0-.09-.02-.16-.02-.17.12-.32.29-.32h2.65c.15,0,.27.11.29.25,0,.06.02.11.02.14.36,1.83,1.85,2.89,4.04,2.89,2,0,3.46-1.01,3.46-2.45,0-2.17-2.08-2.51-4.28-2.87-2.83-.46-6.05-.99-6.05-5.32,0-3.13,2.59-5.23,6.44-5.23s6.45,1.9,6.99,4.9c.01.08.04.27.06.45.02.17-.12.33-.29.33h-2.66c-.14,0-.26-.1-.29-.24-.03-.12-.05-.25-.06-.29-.5-1.65-2.23-2.32-3.74-2.32-1.89,0-3.17.86-3.17,2.29,0,1.94,1.97,2.23,4.05,2.53,2.97.43,6.35.92,6.35,5.69,0,3.31-2.67,5.45-6.8,5.45"/>
            <path class="cls-5" d="m182.2,31.51c-1.82,0-3.33-.55-4.35-1.6-1.07-1.1-1.59-2.69-1.53-4.7v-7.74h-.03c-1-.06-2-.18-2.95-.36-.07-.01-.12-.05-.16-.11-.04-.06-.05-.12-.04-.19l.5-2.54c.02-.12.13-.2.25-.2.01,0,.03,0,.04,0,.77.14,1.56.24,2.36.29h.03v-5.67c0-.14.12-.25.26-.25h2.84c.14,0,.25.11.25.25v5.65h.03c1.53-.13,2.93-.42,4.42-.91.03,0,.05-.01.08-.01.11,0,.2.07.24.17l.84,2.45c.02.06.02.13-.01.2-.03.06-.08.11-.15.13-1.81.6-3.54.94-5.42,1.08h-.02v7.76c0,2.03,1.14,3.19,3.11,3.19h1.86c.14,0,.25.11.25.25v2.62c0,.14-.11.25-.25.25h-2.44Z"/>
            <path class="cls-5" d="m149.34,31.51c-.14,0-.25-.11-.25-.25v-10.26c0-2.82-1.66-4.71-4.13-4.71-2.75,0-4.74,2.25-4.74,5.35v9.61c0,.14-.11.25-.25.25h-3.15c-.14,0-.25-.11-.25-.25V13.52c0-.14.11-.25.25-.25h3.15c.14,0,.25.11.25.25v2.63c1.03-2.01,3.09-3.15,5.71-3.15,4.08,0,6.82,2.94,6.82,7.32v10.94c0,.14-.11.25-.25.25h-3.15Z"/>
            <path class="cls-5" d="m129.93,31.52c-.14,0-.25-.11-.25-.25v-1.91l-.05.07c-.97,1.39-3.08,2.22-5.63,2.22-5.21,0-8.58-3.63-8.58-9.26s3.35-9.26,8.55-9.26c2.34,0,4.67,1.2,5.67,2.33l.04.05V6.12c0-.14.11-.25.25-.25h2.89c.14,0,.25.11.25.25v25.14c0,.14-.11.25-.25.25h-2.89,0Zm-5.51-15.46c-3.34,0-5.58,2.55-5.58,6.34s2.24,6.34,5.58,6.34,5.62-2.55,5.62-6.34-2.26-6.34-5.62-6.34"/>
            <path class="cls-5" d="m62.02,31.79c-5.48,0-11.19-3.61-11.19-11.67s5.77-11.67,11.32-11.67c4.5,0,7.86,2.51,9.22,6.88.03.09.01.18-.03.26s-.13.13-.22.15l-2.62.43s-.03,0-.05,0c-.13,0-.24-.08-.3-.19-1.34-3.07-3.19-4.44-6-4.44-4.66,0-7.86,3.37-7.86,8.59s3.27,8.68,7.82,8.68c3.62,0,6.45-2.18,6.45-5.42,0-.4,0-.15-.02-.31-.65.08-1.24.11-1.8.11-1.2,0-2.18-.17-3.38-.44-.17-.04-.28-.21-.24-.38l.47-2.38c.03-.15.16-.26.32-.26.02,0,.05,0,.07,0,1.08.24,2.18.37,3.25.37,1.63,0,3.26-.27,4.98-.83.03-.01.07-.02.1-.02.14,0,.26.09.31.22l.73,2.31c.03.08.02.18-.02.25-.04.08-.12.14-.2.16-.39.1-.81.19-1.17.27l-.29.06.23,8.66c0,.09-.03.17-.09.23s-.14.1-.23.1h-2.49c-.18,0-.32-.15-.32-.32v-2.32c-1.38,1.85-3.78,2.92-6.74,2.92"/>
            <path class="cls-5" d="m194.17,31.79c-7.41-.2-9.29-6.21-8.99-9.88.55-6.59,5.29-8.92,8.75-8.92,8.19,0,8.53,9.17,8.53,9.26,0,.13-.08.24-.2.28-3.82,1.36-6.82,1.75-9.41,1.75-1.31,0-2.62-.23-4.15-.52-.04,0-.08.03-.07.07.47,3,3.11,5.06,5.61,5.03,2.9-.03,4.32-1.22,4.91-3.09.03-.11.13-.19.24-.19h2.99c.08,0,.15.04.2.1.05.06.07.14.05.21-.77,3.52-4,5.99-8.47,5.89m-.78-15.93c-3.06.29-4.45,3.17-4.75,4.72,0,.03,0,.06.01.09s.04.04.08.05c4,1.05,7.67.44,10.19-.22.03,0,.06-.03.07-.05s.02-.05.01-.08c-.07-1.16-1.52-4.89-5.62-4.5"/>
            <path class="cls-5" d="m104.51,31.81c-5.42,0-9.36-3.95-9.36-9.4s3.94-9.4,9.36-9.4,9.32,3.95,9.32,9.4-3.92,9.4-9.32,9.4m0-15.87c-3.5,0-5.94,2.66-5.94,6.47s2.44,6.46,5.94,6.46,5.9-2.65,5.9-6.46-2.43-6.47-5.9-6.47"/>
            <path class="cls-5" d="m84.19,31.81c-5.42,0-9.36-3.95-9.36-9.4s3.94-9.4,9.36-9.4,9.32,3.95,9.32,9.4-3.92,9.4-9.32,9.4m0-15.87c-3.5,0-5.94,2.66-5.94,6.47s2.44,6.46,5.94,6.46,5.9-2.65,5.9-6.46-2.43-6.47-5.9-6.47"/>
          </g>
          <g>
            <path class="cls-3" d="m24.23,10.39h0s-14.7,0-14.7,0h0c-.85,0-1.07.22-1.07,1.07s.22,1.07,1.07,1.07h0s14.7,0,14.7,0h0c.85,0,1.07-.22,1.07-1.07s-.22-1.07-1.07-1.07Z"/>
            <path class="cls-3" d="m23.05,28.98h0c-.37.34-2.34,2.01-4.84,1.55-1.6-.29-2.6-1.31-2.93-1.64-1.6-1.63-1.76-3.68-1.76-4.48,0-.48-.31-.9-.77-1.04-.46-.13-.95.06-1.21.46-.4.65-.91,1.19-1.51,1.62-.33.24-.69.44-1.07.6h0c-.78.34-.9.63-.56,1.41.33.78.63.9,1.41.56h0c.52-.22,1.02-.5,1.48-.83.15-.11.3-.22.44-.34.32,1.12.91,2.39,2.03,3.53.45.45,1.8,1.84,4.07,2.25.43.08.84.11,1.25.11,2.88,0,4.99-1.79,5.43-2.19h0c.63-.57.64-.89.07-1.51s-.89-.64-1.51-.07Z"/>
            <path class="cls-3" d="m21.53,17.81h0s0,0,0,0h-12c-.85,0-1.07.22-1.07,1.07s.22,1.07,1.07,1.07h0s9.01,0,9.01,0h2.99c.85,0,1.07-.22,1.07-1.07s-.22-1.07-1.07-1.07Z"/>
          </g>
          <path class="cls-2" d="m34.07,10.81c.47-1.3-.2-2.75-1.5-3.22s-2.75.2-3.22,1.5l-4.33,11.89c-.15.42-.22.87-.21,1.31l.13,4.17c.02.7.88,1.01,1.35.49l2.78-3.11c.3-.33.53-.72.68-1.14l4.33-11.89Z"/>
        </g>
      </g>
    </g>
  </g>
  <path class="cls-5" d="m215.97,8.43h2.26v.5h-.85v2.34h-.55v-2.34h-.85v-.5Zm2.72,0h.65l.83,2.05.83-2.05h.65v2.84h-.52v-1.84l-.74,1.84h-.44l-.73-1.84v1.84h-.52v-2.84Z"/>
</svg>